<svg xmlns="http://www.w3.org/2000/svg" viewBox="0 0 147.01 147.01">
  <defs>
    <style>
      .cls-1 {
        fill: #b2b2b2;
      }

      .cls-1, .cls-2, .cls-3 {
        fill-rule: evenodd;
      }

      .cls-2 {
        fill: #ca0928;
      }

      .cls-3 {
        fill: #042b60;
      }
    </style>
  </defs>
  <g id="Layer_2" data-name="Layer 2">
    <g id="Layer_1-2" data-name="Layer 1">
      <g>
        <path class="cls-1" d="M73.5,0a73.51,73.51,0,1,1-52,21.53A73.29,73.29,0,0,1,73.5,0ZM125,22.06A72.75,72.75,0,1,0,146.26,73.5,72.53,72.53,0,0,0,125,22.06ZM73.5,17.57A55.94,55.94,0,1,0,113.05,34,55.71,55.71,0,0,0,73.5,17.57Zm39,16.92a55.18,55.18,0,1,0,16.16,39A55,55,0,0,0,112.52,34.49Z"/>
        <path class="cls-2" d="M77.37,23.74c3.67,5.93,6.49,20.07,7.4,37.58H62.24c.91-17.51,3.73-31.65,7.4-37.58,1.27-.1,2.56-.15,3.86-.15s2.59.05,3.87.15Zm6.25.88c8.5,6.16,15,19.85,17.14,36.7h21.16A50,50,0,0,0,83.62,24.62Z"/>
        <path class="cls-3" d="M63.39,122.39a49.92,49.92,0,0,1,0-97.77C52.91,32.21,45.48,51.23,45.48,73.5s7.43,41.3,17.91,48.89ZM85,69H53.7v9.38H62c.41,20.84,3.49,38.18,7.66,44.92,1.27.1,2.56.15,3.86.15s2.59,0,3.87-.15c4.49-7.26,7.71-26.8,7.71-49.77,0-1.52,0-3,0-4.53Zm38.18,0q.21,2.23.21,4.53a49.94,49.94,0,0,1-39.8,48.89c10.47-7.59,17.9-26.61,17.9-48.89,0-1.53,0-3-.1-4.53Z"/>
        <polygon class="cls-2" points="43.18 123.29 42.72 127.74 46.81 129.54 42.44 130.47 42 134.92 39.76 131.05 35.39 132.01 38.38 128.68 36.12 124.82 40.21 126.63 43.18 123.29"/>
        <polygon class="cls-2" points="103.83 123.29 104.29 127.74 100.19 129.54 104.56 130.47 105.01 134.92 107.25 131.05 111.62 132.01 108.63 128.68 110.89 124.82 106.8 126.63 103.83 123.29"/>
      </g>
    </g>
  </g>
</svg>
